<mxfile host="app.diagrams.net" agent="Mozilla/5.0 (Macintosh; Intel Mac OS X 10.15; rv:142.0) Gecko/20100101 Firefox/142.0" version="28.2.0">
  <diagram name="第 1 页" id="Pzourz4h_DFcCKRPGFEX">
    <mxGraphModel dx="1356" dy="1184" grid="0" gridSize="10" guides="1" tooltips="1" connect="1" arrows="1" fold="1" page="0" pageScale="1" pageWidth="827" pageHeight="1169" math="0" shadow="0">
      <root>
        <mxCell id="0" />
        <mxCell id="1" parent="0" />
        <mxCell id="JjamYGA8a8fAGe5ncsV0-26" value="" style="shape=parallelogram;perimeter=parallelogramPerimeter;whiteSpace=wrap;html=1;fixedSize=1;size=113;fillColor=#f8cecc;strokeColor=none;dashed=1;dashPattern=1 1;strokeWidth=1;rounded=1;shadow=1;" vertex="1" parent="1">
          <mxGeometry x="98" y="230" width="436" height="210" as="geometry" />
        </mxCell>
        <mxCell id="JjamYGA8a8fAGe5ncsV0-13" value="" style="shape=parallelogram;perimeter=parallelogramPerimeter;whiteSpace=wrap;html=1;fixedSize=1;size=113;fillColor=#dae8fc;strokeColor=none;dashed=1;dashPattern=1 1;strokeWidth=1;rounded=1;shadow=1;" vertex="1" parent="1">
          <mxGeometry x="115" y="7" width="436" height="210" as="geometry" />
        </mxCell>
        <mxCell id="JjamYGA8a8fAGe5ncsV0-1" value="" style="shape=mxgraph.cisco.computers_and_peripherals.terminal;sketch=0;html=1;pointerEvents=1;dashed=0;fillColor=#036897;strokeColor=#ffffff;strokeWidth=2;verticalLabelPosition=bottom;verticalAlign=top;align=center;outlineConnect=0;" vertex="1" parent="1">
          <mxGeometry x="-23" y="93" width="61" height="54" as="geometry" />
        </mxCell>
        <mxCell id="JjamYGA8a8fAGe5ncsV0-2" value="" style="shape=mxgraph.cisco.computers_and_peripherals.terminal;sketch=0;html=1;pointerEvents=1;dashed=0;fillColor=#036897;strokeColor=#ffffff;strokeWidth=2;verticalLabelPosition=bottom;verticalAlign=top;align=center;outlineConnect=0;" vertex="1" parent="1">
          <mxGeometry x="732" width="61" height="54" as="geometry" />
        </mxCell>
        <mxCell id="JjamYGA8a8fAGe5ncsV0-3" value="" style="shape=mxgraph.cisco.computers_and_peripherals.terminal;sketch=0;html=1;pointerEvents=1;dashed=0;fillColor=#036897;strokeColor=#ffffff;strokeWidth=2;verticalLabelPosition=bottom;verticalAlign=top;align=center;outlineConnect=0;" vertex="1" parent="1">
          <mxGeometry x="724" y="168" width="61" height="54" as="geometry" />
        </mxCell>
        <mxCell id="JjamYGA8a8fAGe5ncsV0-4" value="" style="shape=mxgraph.cisco.routers.router;sketch=0;html=1;pointerEvents=1;dashed=0;fillColor=#036897;strokeColor=#ffffff;strokeWidth=2;verticalLabelPosition=bottom;verticalAlign=top;align=center;outlineConnect=0;" vertex="1" parent="1">
          <mxGeometry x="165" y="100" width="45" height="36" as="geometry" />
        </mxCell>
        <mxCell id="JjamYGA8a8fAGe5ncsV0-5" value="" style="shape=mxgraph.cisco.routers.router;sketch=0;html=1;pointerEvents=1;dashed=0;fillColor=#036897;strokeColor=#ffffff;strokeWidth=2;verticalLabelPosition=bottom;verticalAlign=top;align=center;outlineConnect=0;" vertex="1" parent="1">
          <mxGeometry x="406" y="171" width="45" height="36" as="geometry" />
        </mxCell>
        <mxCell id="JjamYGA8a8fAGe5ncsV0-6" value="" style="shape=mxgraph.cisco.routers.router;sketch=0;html=1;pointerEvents=1;dashed=0;fillColor=#036897;strokeColor=#ffffff;strokeWidth=2;verticalLabelPosition=bottom;verticalAlign=top;align=center;outlineConnect=0;" vertex="1" parent="1">
          <mxGeometry x="491" y="12" width="45" height="36" as="geometry" />
        </mxCell>
        <mxCell id="JjamYGA8a8fAGe5ncsV0-7" value="" style="endArrow=none;html=1;rounded=0;fontSize=12;startSize=8;endSize=8;curved=1;exitX=1;exitY=0.5;exitDx=0;exitDy=0;exitPerimeter=0;entryX=0;entryY=0.5;entryDx=0;entryDy=0;entryPerimeter=0;" edge="1" parent="1" source="JjamYGA8a8fAGe5ncsV0-4" target="JjamYGA8a8fAGe5ncsV0-6">
          <mxGeometry width="50" height="50" relative="1" as="geometry">
            <mxPoint x="276" y="227" as="sourcePoint" />
            <mxPoint x="326" y="177" as="targetPoint" />
          </mxGeometry>
        </mxCell>
        <mxCell id="JjamYGA8a8fAGe5ncsV0-8" value="" style="endArrow=none;html=1;rounded=0;fontSize=12;startSize=8;endSize=8;curved=1;exitX=1;exitY=0.5;exitDx=0;exitDy=0;exitPerimeter=0;" edge="1" parent="1" source="JjamYGA8a8fAGe5ncsV0-4" target="JjamYGA8a8fAGe5ncsV0-5">
          <mxGeometry width="50" height="50" relative="1" as="geometry">
            <mxPoint x="276" y="227" as="sourcePoint" />
            <mxPoint x="326" y="177" as="targetPoint" />
          </mxGeometry>
        </mxCell>
        <mxCell id="JjamYGA8a8fAGe5ncsV0-9" value="" style="endArrow=none;html=1;rounded=0;fontSize=12;startSize=8;endSize=8;curved=1;entryX=0;entryY=0.5;entryDx=0;entryDy=0;entryPerimeter=0;exitX=1;exitY=0.5;exitDx=0;exitDy=0;exitPerimeter=0;" edge="1" parent="1">
          <mxGeometry width="50" height="50" relative="1" as="geometry">
            <mxPoint x="38" y="121.5" as="sourcePoint" />
            <mxPoint x="165" y="119.5" as="targetPoint" />
          </mxGeometry>
        </mxCell>
        <mxCell id="JjamYGA8a8fAGe5ncsV0-10" value="" style="endArrow=none;html=1;rounded=0;fontSize=12;startSize=8;endSize=8;curved=1;entryX=0.15;entryY=0.5;entryDx=0;entryDy=0;entryPerimeter=0;exitX=1;exitY=0.5;exitDx=0;exitDy=0;exitPerimeter=0;" edge="1" parent="1" source="JjamYGA8a8fAGe5ncsV0-6" target="JjamYGA8a8fAGe5ncsV0-2">
          <mxGeometry width="50" height="50" relative="1" as="geometry">
            <mxPoint x="336" y="168" as="sourcePoint" />
            <mxPoint x="386" y="118" as="targetPoint" />
          </mxGeometry>
        </mxCell>
        <mxCell id="JjamYGA8a8fAGe5ncsV0-11" value="" style="endArrow=none;html=1;rounded=0;fontSize=12;startSize=8;endSize=8;curved=1;exitX=1;exitY=0.5;exitDx=0;exitDy=0;exitPerimeter=0;entryX=0.15;entryY=0.5;entryDx=0;entryDy=0;entryPerimeter=0;" edge="1" parent="1" source="JjamYGA8a8fAGe5ncsV0-5" target="JjamYGA8a8fAGe5ncsV0-3">
          <mxGeometry width="50" height="50" relative="1" as="geometry">
            <mxPoint x="336" y="168" as="sourcePoint" />
            <mxPoint x="386" y="118" as="targetPoint" />
          </mxGeometry>
        </mxCell>
        <mxCell id="JjamYGA8a8fAGe5ncsV0-15" value="&lt;b&gt;&lt;span style=&quot;color: rgb(51, 153, 255);&quot;&gt;Overlay&lt;/span&gt;&lt;/b&gt;" style="text;html=1;align=center;verticalAlign=middle;whiteSpace=wrap;rounded=0;" vertex="1" parent="1">
          <mxGeometry x="140" y="182" width="60" height="30" as="geometry" />
        </mxCell>
        <mxCell id="JjamYGA8a8fAGe5ncsV0-16" value="" style="shape=mxgraph.cisco.routers.router;sketch=0;html=1;pointerEvents=1;dashed=0;fillColor=#036897;strokeColor=#ffffff;strokeWidth=2;verticalLabelPosition=bottom;verticalAlign=top;align=center;outlineConnect=0;" vertex="1" parent="1">
          <mxGeometry x="165" y="328" width="45" height="36" as="geometry" />
        </mxCell>
        <mxCell id="JjamYGA8a8fAGe5ncsV0-17" value="" style="shape=mxgraph.cisco.routers.router;sketch=0;html=1;pointerEvents=1;dashed=0;fillColor=#036897;strokeColor=#ffffff;strokeWidth=2;verticalLabelPosition=bottom;verticalAlign=top;align=center;outlineConnect=0;" vertex="1" parent="1">
          <mxGeometry x="401" y="402" width="45" height="36" as="geometry" />
        </mxCell>
        <mxCell id="JjamYGA8a8fAGe5ncsV0-18" value="" style="shape=mxgraph.cisco.routers.router;sketch=0;html=1;pointerEvents=1;dashed=0;fillColor=#036897;strokeColor=#ffffff;strokeWidth=2;verticalLabelPosition=bottom;verticalAlign=top;align=center;outlineConnect=0;" vertex="1" parent="1">
          <mxGeometry x="486" y="230" width="45" height="36" as="geometry" />
        </mxCell>
        <mxCell id="JjamYGA8a8fAGe5ncsV0-19" value="" style="shape=mxgraph.cisco.routers.router;sketch=0;html=1;pointerEvents=1;dashed=0;fillColor=#036897;strokeColor=#ffffff;strokeWidth=2;verticalLabelPosition=bottom;verticalAlign=top;align=center;outlineConnect=0;" vertex="1" parent="1">
          <mxGeometry x="286" y="328" width="45" height="36" as="geometry" />
        </mxCell>
        <mxCell id="JjamYGA8a8fAGe5ncsV0-20" value="" style="shape=mxgraph.cisco.routers.router;sketch=0;html=1;pointerEvents=1;dashed=0;fillColor=#036897;strokeColor=#ffffff;strokeWidth=2;verticalLabelPosition=bottom;verticalAlign=top;align=center;outlineConnect=0;" vertex="1" parent="1">
          <mxGeometry x="395" y="272" width="45" height="36" as="geometry" />
        </mxCell>
        <mxCell id="JjamYGA8a8fAGe5ncsV0-21" value="" style="endArrow=none;dashed=1;html=1;dashPattern=1 3;strokeWidth=2;rounded=0;fontSize=12;startSize=8;endSize=8;curved=1;" edge="1" parent="1">
          <mxGeometry width="50" height="50" relative="1" as="geometry">
            <mxPoint x="382" y="345" as="sourcePoint" />
            <mxPoint x="440" y="345" as="targetPoint" />
          </mxGeometry>
        </mxCell>
        <mxCell id="JjamYGA8a8fAGe5ncsV0-22" value="" style="endArrow=none;html=1;rounded=0;fontSize=12;startSize=8;endSize=8;curved=1;exitX=1;exitY=0.5;exitDx=0;exitDy=0;exitPerimeter=0;entryX=0;entryY=0.5;entryDx=0;entryDy=0;entryPerimeter=0;" edge="1" parent="1" source="JjamYGA8a8fAGe5ncsV0-16" target="JjamYGA8a8fAGe5ncsV0-19">
          <mxGeometry width="50" height="50" relative="1" as="geometry">
            <mxPoint x="257" y="301" as="sourcePoint" />
            <mxPoint x="307" y="251" as="targetPoint" />
          </mxGeometry>
        </mxCell>
        <mxCell id="JjamYGA8a8fAGe5ncsV0-23" value="" style="endArrow=none;html=1;rounded=0;fontSize=12;startSize=8;endSize=8;curved=1;exitX=1;exitY=0.5;exitDx=0;exitDy=0;exitPerimeter=0;entryX=0;entryY=0.5;entryDx=0;entryDy=0;entryPerimeter=0;" edge="1" parent="1" source="JjamYGA8a8fAGe5ncsV0-19" target="JjamYGA8a8fAGe5ncsV0-17">
          <mxGeometry width="50" height="50" relative="1" as="geometry">
            <mxPoint x="257" y="301" as="sourcePoint" />
            <mxPoint x="307" y="251" as="targetPoint" />
          </mxGeometry>
        </mxCell>
        <mxCell id="JjamYGA8a8fAGe5ncsV0-24" value="" style="endArrow=none;html=1;rounded=0;fontSize=12;startSize=8;endSize=8;curved=1;entryX=0;entryY=0.5;entryDx=0;entryDy=0;entryPerimeter=0;exitX=1;exitY=0.5;exitDx=0;exitDy=0;exitPerimeter=0;" edge="1" parent="1" source="JjamYGA8a8fAGe5ncsV0-20" target="JjamYGA8a8fAGe5ncsV0-18">
          <mxGeometry width="50" height="50" relative="1" as="geometry">
            <mxPoint x="257" y="301" as="sourcePoint" />
            <mxPoint x="307" y="251" as="targetPoint" />
          </mxGeometry>
        </mxCell>
        <mxCell id="JjamYGA8a8fAGe5ncsV0-25" value="" style="endArrow=none;dashed=1;html=1;dashPattern=1 3;strokeWidth=2;rounded=0;fontSize=12;startSize=8;endSize=8;curved=1;" edge="1" parent="1">
          <mxGeometry width="50" height="50" relative="1" as="geometry">
            <mxPoint x="336" y="334" as="sourcePoint" />
            <mxPoint x="387" y="296" as="targetPoint" />
          </mxGeometry>
        </mxCell>
        <mxCell id="JjamYGA8a8fAGe5ncsV0-27" value="&lt;b&gt;&lt;span style=&quot;color: rgb(255, 0, 0);&quot;&gt;Underlay&lt;/span&gt;&lt;/b&gt;" style="text;html=1;align=center;verticalAlign=middle;whiteSpace=wrap;rounded=0;" vertex="1" parent="1">
          <mxGeometry x="118" y="410" width="60" height="30" as="geometry" />
        </mxCell>
        <mxCell id="JjamYGA8a8fAGe5ncsV0-28" value="" style="ellipse;shape=cloud;whiteSpace=wrap;html=1;strokeColor=#6c8ebf;strokeWidth=3;fillColor=#dae8fc;" vertex="1" parent="1">
          <mxGeometry x="284" y="1104" width="654" height="230" as="geometry" />
        </mxCell>
        <mxCell id="JjamYGA8a8fAGe5ncsV0-29" value="" style="shape=mxgraph.cisco.switches.layer_2_remote_switch;sketch=0;html=1;pointerEvents=1;dashed=0;fillColor=#036897;strokeColor=#ffffff;strokeWidth=2;verticalLabelPosition=bottom;verticalAlign=top;align=center;outlineConnect=0;" vertex="1" parent="1">
          <mxGeometry x="395" y="1276" width="101" height="50" as="geometry" />
        </mxCell>
        <mxCell id="JjamYGA8a8fAGe5ncsV0-30" value="" style="shape=mxgraph.cisco.switches.layer_2_remote_switch;sketch=0;html=1;pointerEvents=1;dashed=0;fillColor=#036897;strokeColor=#ffffff;strokeWidth=2;verticalLabelPosition=bottom;verticalAlign=top;align=center;outlineConnect=0;" vertex="1" parent="1">
          <mxGeometry x="588" y="1276" width="101" height="50" as="geometry" />
        </mxCell>
        <mxCell id="JjamYGA8a8fAGe5ncsV0-31" value="" style="shape=mxgraph.cisco.switches.layer_2_remote_switch;sketch=0;html=1;pointerEvents=1;dashed=0;fillColor=#036897;strokeColor=#ffffff;strokeWidth=2;verticalLabelPosition=bottom;verticalAlign=top;align=center;outlineConnect=0;" vertex="1" parent="1">
          <mxGeometry x="780" y="1272" width="101" height="50" as="geometry" />
        </mxCell>
        <mxCell id="JjamYGA8a8fAGe5ncsV0-32" value="" style="shape=mxgraph.cisco.routers.router;sketch=0;html=1;pointerEvents=1;dashed=0;fillColor=#036897;strokeColor=#ffffff;strokeWidth=2;verticalLabelPosition=bottom;verticalAlign=top;align=center;outlineConnect=0;" vertex="1" parent="1">
          <mxGeometry x="436" y="1112" width="78" height="53" as="geometry" />
        </mxCell>
        <mxCell id="JjamYGA8a8fAGe5ncsV0-33" value="" style="shape=mxgraph.cisco.routers.router;sketch=0;html=1;pointerEvents=1;dashed=0;fillColor=#036897;strokeColor=#ffffff;strokeWidth=2;verticalLabelPosition=bottom;verticalAlign=top;align=center;outlineConnect=0;" vertex="1" parent="1">
          <mxGeometry x="682" y="1112" width="78" height="53" as="geometry" />
        </mxCell>
        <mxCell id="JjamYGA8a8fAGe5ncsV0-34" value="" style="endArrow=none;html=1;rounded=0;fontSize=12;startSize=8;endSize=8;curved=1;exitX=0.5;exitY=1;exitDx=0;exitDy=0;exitPerimeter=0;entryX=0.5;entryY=0;entryDx=0;entryDy=0;entryPerimeter=0;strokeWidth=2;strokeColor=#808080;" edge="1" parent="1" source="JjamYGA8a8fAGe5ncsV0-32" target="JjamYGA8a8fAGe5ncsV0-29">
          <mxGeometry width="50" height="50" relative="1" as="geometry">
            <mxPoint x="620" y="1194" as="sourcePoint" />
            <mxPoint x="670" y="1144" as="targetPoint" />
          </mxGeometry>
        </mxCell>
        <mxCell id="JjamYGA8a8fAGe5ncsV0-35" value="" style="endArrow=none;html=1;rounded=0;fontSize=12;startSize=8;endSize=8;curved=1;exitX=0.5;exitY=0;exitDx=0;exitDy=0;exitPerimeter=0;entryX=0.5;entryY=1;entryDx=0;entryDy=0;entryPerimeter=0;strokeWidth=2;strokeColor=#808080;" edge="1" parent="1" source="JjamYGA8a8fAGe5ncsV0-30" target="JjamYGA8a8fAGe5ncsV0-32">
          <mxGeometry width="50" height="50" relative="1" as="geometry">
            <mxPoint x="721" y="876" as="sourcePoint" />
            <mxPoint x="679" y="983" as="targetPoint" />
          </mxGeometry>
        </mxCell>
        <mxCell id="JjamYGA8a8fAGe5ncsV0-36" value="" style="endArrow=none;html=1;rounded=0;fontSize=12;startSize=8;endSize=8;curved=1;exitX=0.5;exitY=0;exitDx=0;exitDy=0;exitPerimeter=0;entryX=0.5;entryY=1;entryDx=0;entryDy=0;entryPerimeter=0;strokeWidth=2;strokeColor=#808080;" edge="1" parent="1" source="JjamYGA8a8fAGe5ncsV0-31" target="JjamYGA8a8fAGe5ncsV0-32">
          <mxGeometry width="50" height="50" relative="1" as="geometry">
            <mxPoint x="653" y="1004" as="sourcePoint" />
            <mxPoint x="611" y="1111" as="targetPoint" />
          </mxGeometry>
        </mxCell>
        <mxCell id="JjamYGA8a8fAGe5ncsV0-37" value="" style="endArrow=none;html=1;rounded=0;fontSize=12;startSize=8;endSize=8;curved=1;exitX=0.5;exitY=1;exitDx=0;exitDy=0;exitPerimeter=0;entryX=0.5;entryY=0;entryDx=0;entryDy=0;entryPerimeter=0;strokeWidth=2;strokeColor=#808080;" edge="1" parent="1" source="JjamYGA8a8fAGe5ncsV0-33" target="JjamYGA8a8fAGe5ncsV0-29">
          <mxGeometry width="50" height="50" relative="1" as="geometry">
            <mxPoint x="758" y="885" as="sourcePoint" />
            <mxPoint x="716" y="992" as="targetPoint" />
          </mxGeometry>
        </mxCell>
        <mxCell id="JjamYGA8a8fAGe5ncsV0-38" value="" style="endArrow=none;html=1;rounded=0;fontSize=12;startSize=8;endSize=8;curved=1;exitX=0.5;exitY=0;exitDx=0;exitDy=0;exitPerimeter=0;entryX=0.5;entryY=1;entryDx=0;entryDy=0;entryPerimeter=0;strokeWidth=2;strokeColor=#808080;" edge="1" parent="1" source="JjamYGA8a8fAGe5ncsV0-30" target="JjamYGA8a8fAGe5ncsV0-33">
          <mxGeometry width="50" height="50" relative="1" as="geometry">
            <mxPoint x="805" y="924" as="sourcePoint" />
            <mxPoint x="763" y="1031" as="targetPoint" />
          </mxGeometry>
        </mxCell>
        <mxCell id="JjamYGA8a8fAGe5ncsV0-39" value="" style="endArrow=none;html=1;rounded=0;fontSize=12;startSize=8;endSize=8;curved=1;exitX=0.5;exitY=1;exitDx=0;exitDy=0;exitPerimeter=0;strokeWidth=2;entryX=0.5;entryY=0;entryDx=0;entryDy=0;entryPerimeter=0;strokeColor=#808080;" edge="1" parent="1" source="JjamYGA8a8fAGe5ncsV0-33" target="JjamYGA8a8fAGe5ncsV0-31">
          <mxGeometry width="50" height="50" relative="1" as="geometry">
            <mxPoint x="790" y="783" as="sourcePoint" />
            <mxPoint x="748" y="890" as="targetPoint" />
          </mxGeometry>
        </mxCell>
        <mxCell id="JjamYGA8a8fAGe5ncsV0-40" value="&lt;font style=&quot;font-size: 17px;&quot;&gt;&lt;b&gt;Spine&lt;/b&gt;&lt;/font&gt;" style="text;html=1;align=center;verticalAlign=middle;whiteSpace=wrap;rounded=0;" vertex="1" parent="1">
          <mxGeometry x="445" y="1067" width="60" height="30" as="geometry" />
        </mxCell>
        <mxCell id="JjamYGA8a8fAGe5ncsV0-41" value="&lt;font style=&quot;font-size: 19px;&quot;&gt;&lt;b&gt;Spine&lt;/b&gt;&lt;/font&gt;" style="text;html=1;align=center;verticalAlign=middle;whiteSpace=wrap;rounded=0;" vertex="1" parent="1">
          <mxGeometry x="691" y="1067" width="60" height="30" as="geometry" />
        </mxCell>
        <mxCell id="JjamYGA8a8fAGe5ncsV0-42" value="&lt;font style=&quot;font-size: 19px;&quot;&gt;&lt;b&gt;Leaf&lt;/b&gt;&lt;/font&gt;" style="text;html=1;align=center;verticalAlign=middle;whiteSpace=wrap;rounded=0;" vertex="1" parent="1">
          <mxGeometry x="408" y="1337" width="60" height="30" as="geometry" />
        </mxCell>
        <mxCell id="JjamYGA8a8fAGe5ncsV0-43" value="&lt;font style=&quot;font-size: 19px;&quot;&gt;&lt;b&gt;Leaf&lt;/b&gt;&lt;/font&gt;" style="text;html=1;align=center;verticalAlign=middle;whiteSpace=wrap;rounded=0;" vertex="1" parent="1">
          <mxGeometry x="600" y="1337" width="60" height="30" as="geometry" />
        </mxCell>
        <mxCell id="JjamYGA8a8fAGe5ncsV0-44" value="&lt;font style=&quot;font-size: 19px;&quot;&gt;&lt;b&gt;Leaf&lt;/b&gt;&lt;/font&gt;" style="text;html=1;align=center;verticalAlign=middle;whiteSpace=wrap;rounded=0;" vertex="1" parent="1">
          <mxGeometry x="800.5" y="1337" width="60" height="30" as="geometry" />
        </mxCell>
        <mxCell id="JjamYGA8a8fAGe5ncsV0-45" value="" style="shape=mxgraph.cisco.servers.fileserver;sketch=0;html=1;pointerEvents=1;dashed=0;fillColor=#036897;strokeColor=#ffffff;strokeWidth=2;verticalLabelPosition=bottom;verticalAlign=top;align=center;outlineConnect=0;" vertex="1" parent="1">
          <mxGeometry x="387" y="1395" width="99" height="93" as="geometry" />
        </mxCell>
        <mxCell id="JjamYGA8a8fAGe5ncsV0-46" value="" style="shape=mxgraph.cisco.servers.fileserver;sketch=0;html=1;pointerEvents=1;dashed=0;fillColor=#036897;strokeColor=#ffffff;strokeWidth=2;verticalLabelPosition=bottom;verticalAlign=top;align=center;outlineConnect=0;" vertex="1" parent="1">
          <mxGeometry x="583" y="1395" width="99" height="93" as="geometry" />
        </mxCell>
        <mxCell id="JjamYGA8a8fAGe5ncsV0-47" value="" style="shape=mxgraph.cisco.servers.fileserver;sketch=0;html=1;pointerEvents=1;dashed=0;fillColor=#036897;strokeColor=#ffffff;strokeWidth=2;verticalLabelPosition=bottom;verticalAlign=top;align=center;outlineConnect=0;" vertex="1" parent="1">
          <mxGeometry x="781" y="1398" width="99" height="93" as="geometry" />
        </mxCell>
        <mxCell id="JjamYGA8a8fAGe5ncsV0-48" value="&lt;font style=&quot;font-size: 25px; color: rgb(0, 102, 204);&quot;&gt;&lt;b&gt;VxLAN&lt;/b&gt;&lt;/font&gt;" style="text;html=1;align=center;verticalAlign=middle;whiteSpace=wrap;rounded=0;" vertex="1" parent="1">
          <mxGeometry x="516" y="1137" width="184" height="71" as="geometry" />
        </mxCell>
        <mxCell id="JjamYGA8a8fAGe5ncsV0-50" value="&lt;font style=&quot;font-size: 18px;&quot;&gt;VM1&lt;/font&gt;" style="rounded=1;whiteSpace=wrap;html=1;fillColor=#dae8fc;strokeColor=#6c8ebf;" vertex="1" parent="1">
          <mxGeometry x="387" y="1519" width="89" height="44" as="geometry" />
        </mxCell>
        <mxCell id="JjamYGA8a8fAGe5ncsV0-51" value="&lt;font style=&quot;font-size: 18px;&quot;&gt;VM2&lt;/font&gt;" style="rounded=1;whiteSpace=wrap;html=1;fillColor=#f8cecc;strokeColor=#b85450;" vertex="1" parent="1">
          <mxGeometry x="387" y="1565" width="89" height="44" as="geometry" />
        </mxCell>
        <mxCell id="JjamYGA8a8fAGe5ncsV0-52" value="&lt;font style=&quot;font-size: 18px;&quot;&gt;VM3&lt;/font&gt;" style="rounded=1;whiteSpace=wrap;html=1;fillColor=#fff2cc;strokeColor=#d6b656;" vertex="1" parent="1">
          <mxGeometry x="387" y="1611" width="89" height="44" as="geometry" />
        </mxCell>
        <mxCell id="JjamYGA8a8fAGe5ncsV0-53" value="&lt;font style=&quot;font-size: 18px;&quot;&gt;VM1&lt;/font&gt;" style="rounded=1;whiteSpace=wrap;html=1;fillColor=#dae8fc;strokeColor=#6c8ebf;" vertex="1" parent="1">
          <mxGeometry x="581" y="1524" width="89" height="44" as="geometry" />
        </mxCell>
        <mxCell id="JjamYGA8a8fAGe5ncsV0-54" value="&lt;font style=&quot;font-size: 18px;&quot;&gt;VM2&lt;/font&gt;" style="rounded=1;whiteSpace=wrap;html=1;fillColor=#f8cecc;strokeColor=#b85450;" vertex="1" parent="1">
          <mxGeometry x="581" y="1568" width="89" height="44" as="geometry" />
        </mxCell>
        <mxCell id="JjamYGA8a8fAGe5ncsV0-55" value="&lt;font style=&quot;font-size: 18px;&quot;&gt;VM3&lt;/font&gt;" style="rounded=1;whiteSpace=wrap;html=1;fillColor=#fff2cc;strokeColor=#d6b656;" vertex="1" parent="1">
          <mxGeometry x="786" y="1611" width="89" height="44" as="geometry" />
        </mxCell>
        <mxCell id="JjamYGA8a8fAGe5ncsV0-56" value="&lt;font style=&quot;font-size: 18px;&quot;&gt;VM1&lt;/font&gt;" style="rounded=1;whiteSpace=wrap;html=1;fillColor=#dae8fc;strokeColor=#6c8ebf;" vertex="1" parent="1">
          <mxGeometry x="786" y="1524" width="89" height="44" as="geometry" />
        </mxCell>
        <mxCell id="JjamYGA8a8fAGe5ncsV0-57" value="&lt;font style=&quot;font-size: 18px;&quot;&gt;VM2&lt;/font&gt;" style="rounded=1;whiteSpace=wrap;html=1;fillColor=#f8cecc;strokeColor=#b85450;" vertex="1" parent="1">
          <mxGeometry x="786" y="1568" width="89" height="44" as="geometry" />
        </mxCell>
        <mxCell id="JjamYGA8a8fAGe5ncsV0-58" value="&lt;font style=&quot;font-size: 18px;&quot;&gt;VM4&lt;/font&gt;" style="rounded=1;whiteSpace=wrap;html=1;fillColor=#ffe6cc;strokeColor=#d79b00;" vertex="1" parent="1">
          <mxGeometry x="786" y="1655" width="89" height="44" as="geometry" />
        </mxCell>
        <mxCell id="JjamYGA8a8fAGe5ncsV0-59" value="" style="ellipse;shape=cloud;whiteSpace=wrap;html=1;fillColor=#f5f5f5;fontColor=#333333;strokeColor=#CCCCCC;" vertex="1" parent="1">
          <mxGeometry x="384" y="2131" width="537" height="295" as="geometry" />
        </mxCell>
        <mxCell id="JjamYGA8a8fAGe5ncsV0-60" value="" style="shape=mxgraph.cisco.computers_and_peripherals.laptop;sketch=0;html=1;pointerEvents=1;dashed=0;fillColor=#036897;strokeColor=#ffffff;strokeWidth=2;verticalLabelPosition=bottom;verticalAlign=top;align=center;outlineConnect=0;" vertex="1" parent="1">
          <mxGeometry x="205" y="2272" width="90" height="61" as="geometry" />
        </mxCell>
        <mxCell id="JjamYGA8a8fAGe5ncsV0-61" value="" style="shape=mxgraph.cisco.computers_and_peripherals.laptop;sketch=0;html=1;pointerEvents=1;dashed=0;fillColor=#036897;strokeColor=#ffffff;strokeWidth=2;verticalLabelPosition=bottom;verticalAlign=top;align=center;outlineConnect=0;" vertex="1" parent="1">
          <mxGeometry x="1024" y="2268" width="90" height="61" as="geometry" />
        </mxCell>
        <mxCell id="JjamYGA8a8fAGe5ncsV0-62" value="" style="shape=mxgraph.cisco.routers.router;sketch=0;html=1;pointerEvents=1;dashed=0;fillColor=#036897;strokeColor=#ffffff;strokeWidth=2;verticalLabelPosition=bottom;verticalAlign=top;align=center;outlineConnect=0;" vertex="1" parent="1">
          <mxGeometry x="406" y="2276" width="78" height="53" as="geometry" />
        </mxCell>
        <mxCell id="JjamYGA8a8fAGe5ncsV0-63" value="" style="shape=mxgraph.cisco.routers.router;sketch=0;html=1;pointerEvents=1;dashed=0;fillColor=#036897;strokeColor=#ffffff;strokeWidth=2;verticalLabelPosition=bottom;verticalAlign=top;align=center;outlineConnect=0;" vertex="1" parent="1">
          <mxGeometry x="836" y="2272" width="78" height="53" as="geometry" />
        </mxCell>
        <mxCell id="JjamYGA8a8fAGe5ncsV0-64" value="" style="shape=cylinder3;whiteSpace=wrap;html=1;boundedLbl=1;backgroundOutline=1;size=15;rotation=-90;fillColor=#FF8000;strokeColor=#d79b00;" vertex="1" parent="1">
          <mxGeometry x="655" y="2144.13" width="18.5" height="316.75" as="geometry" />
        </mxCell>
        <mxCell id="JjamYGA8a8fAGe5ncsV0-65" value="&lt;b style=&quot;color: rgb(255, 255, 255);&quot;&gt;VxLAN 隧道&lt;/b&gt;" style="text;html=1;align=center;verticalAlign=middle;whiteSpace=wrap;rounded=0;" vertex="1" parent="1">
          <mxGeometry x="613.5" y="2288.5" width="85.5" height="30" as="geometry" />
        </mxCell>
        <mxCell id="JjamYGA8a8fAGe5ncsV0-66" value="" style="endArrow=none;html=1;rounded=0;fontSize=12;startSize=8;endSize=8;curved=1;exitX=0;exitY=0.5;exitDx=0;exitDy=0;exitPerimeter=0;" edge="1" parent="1" source="JjamYGA8a8fAGe5ncsV0-62" target="JjamYGA8a8fAGe5ncsV0-60">
          <mxGeometry width="50" height="50" relative="1" as="geometry">
            <mxPoint x="622" y="2338" as="sourcePoint" />
            <mxPoint x="672" y="2288" as="targetPoint" />
          </mxGeometry>
        </mxCell>
        <mxCell id="JjamYGA8a8fAGe5ncsV0-67" value="" style="endArrow=none;html=1;rounded=0;fontSize=12;startSize=8;endSize=8;curved=1;entryX=1;entryY=0.5;entryDx=0;entryDy=0;entryPerimeter=0;exitX=0.28;exitY=0.5;exitDx=0;exitDy=0;exitPerimeter=0;" edge="1" parent="1" source="JjamYGA8a8fAGe5ncsV0-61" target="JjamYGA8a8fAGe5ncsV0-63">
          <mxGeometry width="50" height="50" relative="1" as="geometry">
            <mxPoint x="622" y="2338" as="sourcePoint" />
            <mxPoint x="672" y="2288" as="targetPoint" />
          </mxGeometry>
        </mxCell>
        <mxCell id="JjamYGA8a8fAGe5ncsV0-68" value="&lt;b style=&quot;color: rgb(128, 128, 128);&quot;&gt;&lt;font style=&quot;font-size: 23px;&quot;&gt;IP网络&lt;/font&gt;&lt;/b&gt;" style="text;html=1;align=center;verticalAlign=middle;whiteSpace=wrap;rounded=0;fillColor=none;fontColor=#333333;strokeColor=none;" vertex="1" parent="1">
          <mxGeometry x="607.75" y="2343" width="97" height="37" as="geometry" />
        </mxCell>
        <mxCell id="JjamYGA8a8fAGe5ncsV0-69" value="" style="shape=mxgraph.cisco.routers.router;sketch=0;html=1;pointerEvents=1;dashed=0;fillColor=#036897;strokeColor=#ffffff;strokeWidth=2;verticalLabelPosition=bottom;verticalAlign=top;align=center;outlineConnect=0;" vertex="1" parent="1">
          <mxGeometry x="617.25" y="2215" width="78" height="53" as="geometry" />
        </mxCell>
        <mxCell id="JjamYGA8a8fAGe5ncsV0-70" value="" style="endArrow=none;html=1;rounded=0;fontSize=12;startSize=8;endSize=8;curved=1;exitX=1;exitY=0.5;exitDx=0;exitDy=0;exitPerimeter=0;entryX=0;entryY=0.5;entryDx=0;entryDy=0;entryPerimeter=0;" edge="1" parent="1" source="JjamYGA8a8fAGe5ncsV0-62" target="JjamYGA8a8fAGe5ncsV0-69">
          <mxGeometry width="50" height="50" relative="1" as="geometry">
            <mxPoint x="622" y="2338" as="sourcePoint" />
            <mxPoint x="672" y="2288" as="targetPoint" />
          </mxGeometry>
        </mxCell>
        <mxCell id="JjamYGA8a8fAGe5ncsV0-71" value="" style="endArrow=none;html=1;rounded=0;fontSize=12;startSize=8;endSize=8;curved=1;entryX=1;entryY=0.5;entryDx=0;entryDy=0;entryPerimeter=0;" edge="1" parent="1" source="JjamYGA8a8fAGe5ncsV0-63" target="JjamYGA8a8fAGe5ncsV0-69">
          <mxGeometry width="50" height="50" relative="1" as="geometry">
            <mxPoint x="622" y="2338" as="sourcePoint" />
            <mxPoint x="672" y="2288" as="targetPoint" />
          </mxGeometry>
        </mxCell>
        <mxCell id="JjamYGA8a8fAGe5ncsV0-72" value="L3链路" style="text;html=1;align=center;verticalAlign=middle;whiteSpace=wrap;rounded=0;" vertex="1" parent="1">
          <mxGeometry x="496" y="2242" width="60" height="30" as="geometry" />
        </mxCell>
        <mxCell id="JjamYGA8a8fAGe5ncsV0-73" value="L3链路" style="text;html=1;align=center;verticalAlign=middle;whiteSpace=wrap;rounded=0;" vertex="1" parent="1">
          <mxGeometry x="772" y="2242" width="60" height="30" as="geometry" />
        </mxCell>
        <mxCell id="JjamYGA8a8fAGe5ncsV0-74" value="&lt;b&gt;&lt;span style=&quot;color: rgb(255, 77, 35);&quot;&gt;SW1（NVE）&lt;/span&gt;&lt;/b&gt;" style="text;html=1;align=center;verticalAlign=middle;whiteSpace=wrap;rounded=0;" vertex="1" parent="1">
          <mxGeometry x="408" y="2337" width="95" height="30" as="geometry" />
        </mxCell>
        <mxCell id="JjamYGA8a8fAGe5ncsV0-75" value="&lt;b&gt;&lt;span style=&quot;color: rgb(255, 77, 35);&quot;&gt;SW2（NVE）&lt;/span&gt;&lt;/b&gt;" style="text;html=1;align=center;verticalAlign=middle;whiteSpace=wrap;rounded=0;" vertex="1" parent="1">
          <mxGeometry x="836" y="2331" width="95" height="30" as="geometry" />
        </mxCell>
        <mxCell id="JjamYGA8a8fAGe5ncsV0-77" value="" style="shape=mxgraph.cisco.computers_and_peripherals.laptop;sketch=0;html=1;pointerEvents=1;dashed=0;fillColor=#036897;strokeColor=#ffffff;strokeWidth=2;verticalLabelPosition=bottom;verticalAlign=top;align=center;outlineConnect=0;" vertex="1" parent="1">
          <mxGeometry x="209.75" y="2834" width="90" height="61" as="geometry" />
        </mxCell>
        <mxCell id="JjamYGA8a8fAGe5ncsV0-78" value="" style="shape=mxgraph.cisco.computers_and_peripherals.laptop;sketch=0;html=1;pointerEvents=1;dashed=0;fillColor=#036897;strokeColor=#ffffff;strokeWidth=2;verticalLabelPosition=bottom;verticalAlign=top;align=center;outlineConnect=0;" vertex="1" parent="1">
          <mxGeometry x="1028.75" y="2830" width="90" height="61" as="geometry" />
        </mxCell>
        <mxCell id="JjamYGA8a8fAGe5ncsV0-79" value="" style="shape=mxgraph.cisco.routers.router;sketch=0;html=1;pointerEvents=1;dashed=0;fillColor=#036897;strokeColor=#ffffff;strokeWidth=2;verticalLabelPosition=bottom;verticalAlign=top;align=center;outlineConnect=0;" vertex="1" parent="1">
          <mxGeometry x="410.75" y="2838" width="78" height="53" as="geometry" />
        </mxCell>
        <mxCell id="JjamYGA8a8fAGe5ncsV0-80" value="" style="shape=mxgraph.cisco.routers.router;sketch=0;html=1;pointerEvents=1;dashed=0;fillColor=#036897;strokeColor=#ffffff;strokeWidth=2;verticalLabelPosition=bottom;verticalAlign=top;align=center;outlineConnect=0;" vertex="1" parent="1">
          <mxGeometry x="840.75" y="2834" width="78" height="53" as="geometry" />
        </mxCell>
        <mxCell id="JjamYGA8a8fAGe5ncsV0-81" value="" style="shape=cylinder3;whiteSpace=wrap;html=1;boundedLbl=1;backgroundOutline=1;size=15;rotation=-90;fillColor=#FF8000;strokeColor=#d79b00;" vertex="1" parent="1">
          <mxGeometry x="659.75" y="2706.13" width="18.5" height="316.75" as="geometry" />
        </mxCell>
        <mxCell id="JjamYGA8a8fAGe5ncsV0-82" value="&lt;b style=&quot;color: rgb(255, 255, 255);&quot;&gt;VxLAN 隧道&lt;/b&gt;" style="text;html=1;align=center;verticalAlign=middle;whiteSpace=wrap;rounded=0;" vertex="1" parent="1">
          <mxGeometry x="618.25" y="2850.5" width="85.5" height="30" as="geometry" />
        </mxCell>
        <mxCell id="JjamYGA8a8fAGe5ncsV0-83" value="" style="endArrow=none;html=1;rounded=0;fontSize=12;startSize=8;endSize=8;curved=1;exitX=0;exitY=0.5;exitDx=0;exitDy=0;exitPerimeter=0;" edge="1" parent="1" source="JjamYGA8a8fAGe5ncsV0-79" target="JjamYGA8a8fAGe5ncsV0-77">
          <mxGeometry width="50" height="50" relative="1" as="geometry">
            <mxPoint x="626.75" y="2900" as="sourcePoint" />
            <mxPoint x="676.75" y="2850" as="targetPoint" />
          </mxGeometry>
        </mxCell>
        <mxCell id="JjamYGA8a8fAGe5ncsV0-84" value="" style="endArrow=none;html=1;rounded=0;fontSize=12;startSize=8;endSize=8;curved=1;entryX=1;entryY=0.5;entryDx=0;entryDy=0;entryPerimeter=0;exitX=0.28;exitY=0.5;exitDx=0;exitDy=0;exitPerimeter=0;" edge="1" parent="1" source="JjamYGA8a8fAGe5ncsV0-78" target="JjamYGA8a8fAGe5ncsV0-80">
          <mxGeometry width="50" height="50" relative="1" as="geometry">
            <mxPoint x="626.75" y="2900" as="sourcePoint" />
            <mxPoint x="676.75" y="2850" as="targetPoint" />
          </mxGeometry>
        </mxCell>
        <mxCell id="JjamYGA8a8fAGe5ncsV0-85" value="&lt;b style=&quot;color: rgb(128, 128, 128);&quot;&gt;&lt;font style=&quot;font-size: 23px;&quot;&gt;IP网络&lt;/font&gt;&lt;/b&gt;" style="text;html=1;align=center;verticalAlign=middle;whiteSpace=wrap;rounded=0;fillColor=none;fontColor=#333333;strokeColor=none;" vertex="1" parent="1">
          <mxGeometry x="612.5" y="2905" width="97" height="37" as="geometry" />
        </mxCell>
        <mxCell id="JjamYGA8a8fAGe5ncsV0-86" value="" style="shape=mxgraph.cisco.routers.router;sketch=0;html=1;pointerEvents=1;dashed=0;fillColor=#036897;strokeColor=#ffffff;strokeWidth=2;verticalLabelPosition=bottom;verticalAlign=top;align=center;outlineConnect=0;" vertex="1" parent="1">
          <mxGeometry x="622" y="2777" width="78" height="53" as="geometry" />
        </mxCell>
        <mxCell id="JjamYGA8a8fAGe5ncsV0-87" value="" style="endArrow=none;html=1;rounded=0;fontSize=12;startSize=8;endSize=8;curved=1;exitX=1;exitY=0.5;exitDx=0;exitDy=0;exitPerimeter=0;entryX=0;entryY=0.5;entryDx=0;entryDy=0;entryPerimeter=0;" edge="1" parent="1" source="JjamYGA8a8fAGe5ncsV0-79" target="JjamYGA8a8fAGe5ncsV0-86">
          <mxGeometry width="50" height="50" relative="1" as="geometry">
            <mxPoint x="626.75" y="2900" as="sourcePoint" />
            <mxPoint x="676.75" y="2850" as="targetPoint" />
          </mxGeometry>
        </mxCell>
        <mxCell id="JjamYGA8a8fAGe5ncsV0-88" value="" style="endArrow=none;html=1;rounded=0;fontSize=12;startSize=8;endSize=8;curved=1;entryX=1;entryY=0.5;entryDx=0;entryDy=0;entryPerimeter=0;" edge="1" parent="1" source="JjamYGA8a8fAGe5ncsV0-80" target="JjamYGA8a8fAGe5ncsV0-86">
          <mxGeometry width="50" height="50" relative="1" as="geometry">
            <mxPoint x="626.75" y="2900" as="sourcePoint" />
            <mxPoint x="676.75" y="2850" as="targetPoint" />
          </mxGeometry>
        </mxCell>
        <mxCell id="JjamYGA8a8fAGe5ncsV0-89" value="L3链路" style="text;html=1;align=center;verticalAlign=middle;whiteSpace=wrap;rounded=0;" vertex="1" parent="1">
          <mxGeometry x="500.75" y="2804" width="60" height="30" as="geometry" />
        </mxCell>
        <mxCell id="JjamYGA8a8fAGe5ncsV0-90" value="L3链路" style="text;html=1;align=center;verticalAlign=middle;whiteSpace=wrap;rounded=0;" vertex="1" parent="1">
          <mxGeometry x="776.75" y="2804" width="60" height="30" as="geometry" />
        </mxCell>
        <mxCell id="JjamYGA8a8fAGe5ncsV0-91" value="&lt;font style=&quot;font-size: 16px;&quot;&gt;loopback1:&amp;nbsp;&lt;b&gt;1.1.1.1/32&lt;/b&gt;&lt;/font&gt;" style="text;html=1;align=center;verticalAlign=middle;whiteSpace=wrap;rounded=0;" vertex="1" parent="1">
          <mxGeometry x="374" y="2968" width="163" height="31" as="geometry" />
        </mxCell>
        <mxCell id="JjamYGA8a8fAGe5ncsV0-92" value="&lt;font style=&quot;font-size: 16px;&quot;&gt;loopback1:&amp;nbsp;&lt;b&gt;2.2.2.2/32&lt;/b&gt;&lt;/font&gt;" style="text;html=1;align=center;verticalAlign=middle;whiteSpace=wrap;rounded=0;" vertex="1" parent="1">
          <mxGeometry x="843" y="2968" width="95" height="30" as="geometry" />
        </mxCell>
        <mxCell id="JjamYGA8a8fAGe5ncsV0-93" value="" style="endArrow=none;html=1;rounded=0;fontSize=12;startSize=8;endSize=8;curved=1;entryX=0.5;entryY=1;entryDx=0;entryDy=0;entryPerimeter=0;" edge="1" parent="1" target="JjamYGA8a8fAGe5ncsV0-79">
          <mxGeometry width="50" height="50" relative="1" as="geometry">
            <mxPoint x="450" y="2921" as="sourcePoint" />
            <mxPoint x="663" y="2980" as="targetPoint" />
          </mxGeometry>
        </mxCell>
        <mxCell id="JjamYGA8a8fAGe5ncsV0-94" value="" style="endArrow=none;html=1;rounded=0;fontSize=12;startSize=8;endSize=8;curved=1;entryX=0.5;entryY=1;entryDx=0;entryDy=0;entryPerimeter=0;" edge="1" parent="1">
          <mxGeometry width="50" height="50" relative="1" as="geometry">
            <mxPoint x="881" y="2913" as="sourcePoint" />
            <mxPoint x="881" y="2883" as="targetPoint" />
          </mxGeometry>
        </mxCell>
        <mxCell id="JjamYGA8a8fAGe5ncsV0-95" value="" style="endArrow=none;html=1;rounded=0;fontSize=12;startSize=8;endSize=8;curved=1;" edge="1" parent="1">
          <mxGeometry width="50" height="50" relative="1" as="geometry">
            <mxPoint x="425.75" y="2920" as="sourcePoint" />
            <mxPoint x="473.75" y="2920" as="targetPoint" />
          </mxGeometry>
        </mxCell>
        <mxCell id="JjamYGA8a8fAGe5ncsV0-96" value="" style="endArrow=none;html=1;rounded=0;fontSize=12;startSize=8;endSize=8;curved=1;" edge="1" parent="1">
          <mxGeometry width="50" height="50" relative="1" as="geometry">
            <mxPoint x="855.75" y="2912" as="sourcePoint" />
            <mxPoint x="903.75" y="2912" as="targetPoint" />
          </mxGeometry>
        </mxCell>
        <mxCell id="JjamYGA8a8fAGe5ncsV0-97" value="&lt;b&gt;&lt;font style=&quot;font-size: 15px;&quot;&gt;VTEP&lt;/font&gt;&lt;/b&gt;" style="text;html=1;align=center;verticalAlign=middle;whiteSpace=wrap;rounded=0;" vertex="1" parent="1">
          <mxGeometry x="419.75" y="2925" width="60" height="30" as="geometry" />
        </mxCell>
        <mxCell id="JjamYGA8a8fAGe5ncsV0-98" value="&lt;b&gt;&lt;font style=&quot;font-size: 15px;&quot;&gt;VTEP&lt;/font&gt;&lt;/b&gt;" style="text;html=1;align=center;verticalAlign=middle;whiteSpace=wrap;rounded=0;" vertex="1" parent="1">
          <mxGeometry x="849.75" y="2917" width="60" height="30" as="geometry" />
        </mxCell>
        <mxCell id="JjamYGA8a8fAGe5ncsV0-99" value="" style="shape=flexArrow;endArrow=classic;html=1;rounded=0;fontSize=12;startSize=8;endSize=8;curved=1;width=6.666666666666667;endWidth=1.7777777777777775;fillColor=#ffe6cc;strokeColor=#d79b00;" edge="1" parent="1">
          <mxGeometry width="50" height="50" relative="1" as="geometry">
            <mxPoint x="202" y="3022.88" as="sourcePoint" />
            <mxPoint x="443" y="3023" as="targetPoint" />
          </mxGeometry>
        </mxCell>
        <mxCell id="JjamYGA8a8fAGe5ncsV0-100" value="" style="shape=flexArrow;endArrow=classic;html=1;rounded=0;fontSize=12;startSize=8;endSize=8;curved=1;width=6.666666666666667;endWidth=1.7777777777777775;fillColor=#ffe6cc;strokeColor=#d79b00;" edge="1" parent="1">
          <mxGeometry width="50" height="50" relative="1" as="geometry">
            <mxPoint x="496" y="3025" as="sourcePoint" />
            <mxPoint x="856" y="3025" as="targetPoint" />
          </mxGeometry>
        </mxCell>
        <mxCell id="JjamYGA8a8fAGe5ncsV0-101" value="" style="shape=flexArrow;endArrow=classic;html=1;rounded=0;fontSize=12;startSize=8;endSize=8;curved=1;width=6.666666666666667;endWidth=1.7777777777777775;fillColor=#ffe6cc;strokeColor=#d79b00;" edge="1" parent="1">
          <mxGeometry width="50" height="50" relative="1" as="geometry">
            <mxPoint x="881" y="3029" as="sourcePoint" />
            <mxPoint x="1122" y="3029.12" as="targetPoint" />
          </mxGeometry>
        </mxCell>
        <mxCell id="JjamYGA8a8fAGe5ncsV0-102" value="以太网帧头" style="rounded=0;whiteSpace=wrap;html=1;" vertex="1" parent="1">
          <mxGeometry x="205" y="3077" width="67" height="38" as="geometry" />
        </mxCell>
        <mxCell id="JjamYGA8a8fAGe5ncsV0-103" value="IP头部" style="rounded=0;whiteSpace=wrap;html=1;" vertex="1" parent="1">
          <mxGeometry x="272" y="3077" width="71" height="38" as="geometry" />
        </mxCell>
        <mxCell id="JjamYGA8a8fAGe5ncsV0-105" value="载荷" style="rounded=0;whiteSpace=wrap;html=1;" vertex="1" parent="1">
          <mxGeometry x="343" y="3077" width="71" height="38" as="geometry" />
        </mxCell>
        <mxCell id="JjamYGA8a8fAGe5ncsV0-106" value="" style="shape=curlyBracket;whiteSpace=wrap;html=1;rounded=1;flipH=1;labelPosition=right;verticalLabelPosition=middle;align=left;verticalAlign=middle;rotation=89;" vertex="1" parent="1">
          <mxGeometry x="299.49" y="3038.72" width="20" height="209" as="geometry" />
        </mxCell>
        <mxCell id="JjamYGA8a8fAGe5ncsV0-107" value="&lt;font style=&quot;font-size: 17px; color: rgb(128, 128, 128);&quot;&gt;原始数据帧&lt;/font&gt;" style="text;html=1;align=center;verticalAlign=middle;whiteSpace=wrap;rounded=0;" vertex="1" parent="1">
          <mxGeometry x="244.25" y="3160" width="128.5" height="30" as="geometry" />
        </mxCell>
        <mxCell id="JjamYGA8a8fAGe5ncsV0-108" value="以太网帧头" style="rounded=0;whiteSpace=wrap;html=1;" vertex="1" parent="1">
          <mxGeometry x="496" y="3077" width="67" height="38" as="geometry" />
        </mxCell>
        <mxCell id="JjamYGA8a8fAGe5ncsV0-109" value="IP头部" style="rounded=0;whiteSpace=wrap;html=1;" vertex="1" parent="1">
          <mxGeometry x="563" y="3077" width="71" height="38" as="geometry" />
        </mxCell>
        <mxCell id="JjamYGA8a8fAGe5ncsV0-110" value="UDP头部" style="rounded=0;whiteSpace=wrap;html=1;" vertex="1" parent="1">
          <mxGeometry x="634" y="3077" width="71" height="38" as="geometry" />
        </mxCell>
        <mxCell id="JjamYGA8a8fAGe5ncsV0-111" value="VxLAN头部" style="rounded=0;whiteSpace=wrap;html=1;fillColor=#CC6600;strokeColor=#CC6600;" vertex="1" parent="1">
          <mxGeometry x="704.5" y="3077" width="71" height="38" as="geometry" />
        </mxCell>
        <mxCell id="JjamYGA8a8fAGe5ncsV0-112" value="原始数据帧" style="rounded=0;whiteSpace=wrap;html=1;" vertex="1" parent="1">
          <mxGeometry x="775.5" y="3077" width="71" height="38" as="geometry" />
        </mxCell>
        <mxCell id="JjamYGA8a8fAGe5ncsV0-113" value="以太网帧头" style="rounded=0;whiteSpace=wrap;html=1;" vertex="1" parent="1">
          <mxGeometry x="895.9986082082157" y="3077" width="67" height="38" as="geometry" />
        </mxCell>
        <mxCell id="JjamYGA8a8fAGe5ncsV0-114" value="IP头部" style="rounded=0;whiteSpace=wrap;html=1;" vertex="1" parent="1">
          <mxGeometry x="962.9986082082156" y="3077" width="71" height="38" as="geometry" />
        </mxCell>
        <mxCell id="JjamYGA8a8fAGe5ncsV0-115" value="载荷" style="rounded=0;whiteSpace=wrap;html=1;" vertex="1" parent="1">
          <mxGeometry x="1033.9986082082155" y="3077" width="71" height="38" as="geometry" />
        </mxCell>
        <mxCell id="JjamYGA8a8fAGe5ncsV0-116" value="" style="shape=curlyBracket;whiteSpace=wrap;html=1;rounded=1;flipH=1;labelPosition=right;verticalLabelPosition=middle;align=left;verticalAlign=middle;rotation=89;" vertex="1" parent="1">
          <mxGeometry x="990.4886082082159" y="3038.72" width="20" height="209" as="geometry" />
        </mxCell>
        <mxCell id="JjamYGA8a8fAGe5ncsV0-117" value="&lt;font style=&quot;font-size: 17px; color: rgb(128, 128, 128);&quot;&gt;原始数据帧&lt;/font&gt;" style="text;html=1;align=center;verticalAlign=middle;whiteSpace=wrap;rounded=0;" vertex="1" parent="1">
          <mxGeometry x="935.2486082082157" y="3160" width="128.5" height="30" as="geometry" />
        </mxCell>
      </root>
    </mxGraphModel>
  </diagram>
</mxfile>
